PathFileType	4	(X/Y/Z)	/Users/niels/Desktop/University/Third Semester/Perception and Action/Exam/Gymnastics Motion Tracking/Code for Gym Tracking/Analyzed Data/Webcam_Backflip/id6_1_pure_Sports2D/id6_1_pure_Sports2D_px_person00.trc
DataRate	CameraRate	NumFrames	NumMarkers	Units	OrigDataRate	OrigDataStartFrame	OrigNumFrames
29.81132075471698	29.81132075471698	10	22	m	29.81132075471698	39	159
Frame#	Time	Hip			RHip			RKnee			RAnkle			RBigToe			RSmallToe			RHeel			LHip			LKnee			LAnkle			LBigToe			LSmallToe			LHeel			Neck			Head			Nose			RShoulder			RElbow			RWrist			LShoulder			LElbow			LWrist		
		X1	Y1	Z1	X2	Y2	Z2	X3	Y3	Z3	X4	Y4	Z4	X5	Y5	Z5	X6	Y6	Z6	X7	Y7	Z7	X8	Y8	Z8	X9	Y9	Z9	X10	Y10	Z10	X11	Y11	Z11	X12	Y12	Z12	X13	Y13	Z13	X14	Y14	Z14	X15	Y15	Z15	X16	Y16	Z16	X17	Y17	Z17	X18	Y18	Z18	X19	Y19	Z19	X20	Y20	Z20	X21	Y21	Z21	X22	Y22	Z22
39	1.3082278481012657	0.9379048971948191	-0.4577857079571488	0.0	0.9431899704762119	-0.4587349621893471	0.0	0.9843880688032164	-0.3907212093943999	0.0	1.0233898348570627	-0.45797638535859453	0.0	1.0461292358214587	-0.46727927104437605	0.0	1.0483263883194869	-0.4706823431307392	0.0	1.0263511291892589	-0.47267901509008164	0.0	0.9356581068848846	-0.4554773852424889	0.0	0.9770785713732411	-0.394997993864709	0.0	1.0197777469362361	-0.45474339491169724	0.0	1.0421272251017042	-0.4609133446329751	0.0	1.0369297436596705	-0.466179709235671	0.0	1.0271539853512262	-0.47040098065758523	0.0	0.8268045700797942	-0.397790697935586	0.0	0.7712717574371855	-0.3650403117174064	0.0	0.8105316649940069	-0.36236184312813374	0.0	0.8383321471334971	-0.3978799018185143	0.0	0.8938198687239134	-0.3558430684812529	0.0	0.9235193625175684	-0.30527823654541025	0.0	0.8306451220709209	-0.40164750309214803	0.0	0.8854394130207438	-0.360356091201138	0.0	0.9137904186971177	-0.3111208643834813	0.0
40	1.3417721518987342	0.941617390300003	-0.4378548016581235	0.0	0.9471071011195175	-0.43827737000089323	0.0	0.9569585378267286	-0.35705277696066146	0.0	1.0107808925931745	-0.4010339938037316	0.0	1.0304410420801124	-0.39702880299844556	0.0	1.0349098830232957	-0.40175626354284155	0.0	1.016984087321998	-0.41228965204025647	0.0	0.9392567982097693	-0.4365564599925604	0.0	0.9509231799534394	-0.3636006940683655	0.0	1.0073172637171033	-0.3983096765478738	0.0	1.0243927499179881	-0.394407196386127	0.0	1.0161493646791757	-0.399216167517411	0.0	1.0190569180980096	-0.4099251139003471	0.0	0.825602778624392	-0.40602226650933454	0.0	0.7673138649078222	-0.3896502156121158	0.0	0.8031736887811206	-0.3787270937444802	0.0	0.8395255708672993	-0.40383299594995725	0.0	0.8926497551639972	-0.3589880360320974	0.0	0.9162749606841563	-0.31011474131337535	0.0	0.8320948202539851	-0.4095229211910801	0.0	0.8835357132174049	-0.3662629985907528	0.0	0.9093117739581564	-0.31815084574389274	0.0
41	1.3753164556962025	0.9448495075690638	-0.4163563986557799	0.0	0.9496711155785293	-0.41601440951076735	0.0	0.9267469455767747	-0.33744337280086245	0.0	0.9874197393310109	-0.3548593974515515	0.0	0.9992996343211328	-0.34126541691714846	0.0	1.0056295684244192	-0.34627159315395306	0.0	0.9951810061864633	-0.36153126334552527	0.0	0.9423066890682933	-0.4158904555444737	0.0	0.9224548283338626	-0.3458070299167998	0.0	0.9844401033386628	-0.35258293888458603	0.0	0.993140315108194	-0.3425610933338581	0.0	0.9801150150386998	-0.34626938558464265	0.0	0.9983582791094262	-0.35924743815000165	0.0	0.8307588347075852	-0.4187752910514077	0.0	0.7733026022710809	-0.4206287468413071	0.0	0.8033486070244144	-0.40180482338995005	0.0	0.8460858299588332	-0.41354551942369794	0.0	0.890660255642605	-0.36365113541979965	0.0	0.9036483158359987	-0.31739187187953194	0.0	0.8389736073323107	-0.4209961567125004	0.0	0.881397489064008	-0.37435317301437593	0.0	0.89971104130239	-0.32897241021217516	0.0
42	1.4088607594936708	0.9451702868400891	-0.39400925524464386	0.0	0.9484469248322172	-0.3930611182911951	0.0	0.8975696946021784	-0.3315490700235961	0.0	0.9541690440507052	-0.3231185367355706	0.0	0.9546259752847128	-0.30619553020628004	0.0	0.961934205789234	-0.31019944892591317	0.0	0.9612917951929157	-0.32454892841342414	0.0	0.9427067943804642	-0.39408449544340485	0.0	0.8954434440579351	-0.34085272370786773	0.0	0.9523979516479694	-0.3210106879159658	0.0	0.9501536068882701	-0.31006354409707393	0.0	0.9328172825656267	-0.3125247044334027	0.0	0.9654933009287935	-0.3222272000187207	0.0	0.842843612371788	-0.43316297857697894	0.0	0.7908686594653201	-0.45311095477207364	0.0	0.8131016220721486	-0.42819844013876496	0.0	0.8578467922467911	-0.42479776740522096	0.0	0.887625888824072	-0.37008419204114074	0.0	0.8872844985350752	-0.32865128749443584	0.0	0.85163709101116	-0.43323691128373454	0.0	0.8795624847728241	-0.38349063593623683	0.0	0.8866294921209575	-0.34398530676328026	0.0
43	1.4424050632911392	0.940695447662832	-0.37279551016970447	0.0	0.9418260129698235	-0.3716703964255833	0.0	0.8722574451057264	-0.3375707922468981	0.0	0.9132017204448082	-0.3080672370859902	0.0	0.9010753011165623	-0.29412521469496056	0.0	0.9081962167075269	-0.2960640100007572	0.0	0.9177373998296852	-0.3043091872573483	0.0	0.9387707885129442	-0.3733585602696143	0.0	0.8722369812080791	-0.3464927719368262	0.0	0.9137317017586604	-0.3058769806798535	0.0	0.8998726330259639	-0.2981091329657456	0.0	0.8812359855225714	-0.2997856954052052	0.0	0.9232382944957154	-0.3018089935877861	0.0	0.8614235412297816	-0.4460636612802449	0.0	0.8195724520627177	-0.48180663940453117	0.0	0.8330293555948062	-0.45385357350504324	0.0	0.874113863443023	-0.43512744318138696	0.0	0.8842707118309321	-0.3789299733190047	0.0	0.8705858754246395	-0.3455906622005276	0.0	0.8695946118049958	-0.4435385234162196	0.0	0.8787345653999639	-0.39322632802735186	0.0	0.8728797657129268	-0.36332885897240713	0.0
44	1.4759493670886075	0.9309299225457773	-0.35522289499935994	0.0	0.929705744300946	-0.35435150605516746	0.0	0.85219043054771	-0.35285715499640713	0.0	0.8679819304950288	-0.31011186205588004	0.0	0.845124397452011	-0.30389546384665317	0.0	0.85088990472949	-0.3031356548584367	0.0	0.8687474053263845	-0.3019703122922638	0.0	0.9299754564142781	-0.35646284673880924	0.0	0.8536005410086702	-0.3598741580836767	0.0	0.8723022973810728	-0.30789826261474407	0.0	0.848849771942787	-0.30557119475675815	0.0	0.8328619341733099	-0.30700374323595037	0.0	0.8766233360794318	-0.29943114502836327	0.0	0.8848028400529185	-0.4550729769792173	0.0	0.8568360314323624	-0.5025833393356035	0.0	0.8616011973537262	-0.47507008411691465	0.0	0.8934986696892717	-0.44253125918675346	0.0	0.8818352169330834	-0.3907372887371196	0.0	0.8574028187998729	-0.3691717992513522	0.0	0.8912822719210581	-0.4499388352699712	0.0	0.8796218387675748	-0.40386017041598166	0.0	0.8616502291258009	-0.38667238238196094	0.0
45	1.5094936708860758	0.9168806567569875	-0.3435944169706188	0.0	0.9134022381762327	-0.34322403307182214	0.0	0.8373490762191814	-0.37439932336725606	0.0	0.8231611523086347	-0.3281826027737457	0.0	0.7940602479601727	-0.3328566404458969	0.0	0.7975144704452531	-0.32926741211681454	0.0	0.8198123934139537	-0.31707687457342487	0.0	0.9171345377071312	-0.3456449389371361	0.0	0.8392749862753571	-0.3784642558037102	0.0	0.8333807723202803	-0.3263278844015949	0.0	0.8046429876991481	-0.3308860918875172	0.0	0.7940967215877471	-0.3320542702342762	0.0	0.8322678274466864	-0.31494861113533645	0.0	0.9101941758752174	-0.4591296265078461	0.0	0.8986631528068856	-0.5134593612435334	0.0	0.8951949746887531	-0.48926984237511806	0.0	0.91395587073585	-0.44592682760774444	0.0	0.8814831144540807	-0.4054833558308048	0.0	0.8509099061395701	-0.398868158758641	0.0	0.9142421381574428	-0.4515948819040326	0.0	0.8829111084676521	-0.4158624671889516	0.0	0.85615808618681	-0.4130359840950543	0.0
46	1.5430379746835443	0.9004187944352904	-0.33973852693448997	0.0	0.8949827782522854	-0.33990667982031375	0.0	0.8268000336111763	-0.39950256342291646	0.0	0.7838946639429459	-0.36051120859697905	0.0	0.7547770813096789	-0.3778883862616542	0.0	0.7552885081828322	-0.37193836522131735	0.0	0.7767211978661032	-0.34831539743970996	0.0	0.9018810713197417	-0.3424325124856052	0.0	0.8285513129242524	-0.4005960919081037	0.0	0.8026470371871741	-0.35943950290430143	0.0	0.7742788270184576	-0.3721935960777188	0.0	0.7697099311085093	-0.3724535224392798	0.0	0.7967157680383569	-0.3471171586344913	0.0	0.9342319005377683	-0.45843388375264216	0.0	0.9404195071312235	-0.5145599073423093	0.0	0.9289567377679091	-0.4953162070135239	0.0	0.9330443091859492	-0.44525059557723895	0.0	0.8840742395999489	-0.42237718694233234	0.0	0.8531781179585535	-0.4324432957561379	0.0	0.9355929205540732	-0.4487870286809759	0.0	0.8892817104362252	-0.4288737362412751	0.0	0.8593164020083901	-0.44014508323285917	0.0
47	1.5765822784810126	0.8834514870074825	-0.344821201259964	0.0	0.8765331952564394	-0.34544339208603675	0.0	0.8192383691685741	-0.42647326222813203	0.0	0.7545803947764963	-0.40478140125949813	0.0	0.7320415818848406	-0.43453033077135406	0.0	0.7293961564309479	-0.4273397226705419	0.0	0.7442540728783325	-0.39368974306933	0.0	0.8859048301699658	-0.3476848083811386	0.0	0.8204951484735421	-0.4254271535880448	0.0	0.7838767489350489	-0.4045639650888622	0.0	0.7618340287715237	-0.425699675395167	0.0	0.7616330777107858	-0.4243639888345334	0.0	0.7739914976576527	-0.3936151765963866	0.0	0.953678010319982	-0.4541204541813034	0.0	0.9774037997651915	-0.5077257290375926	0.0	0.9580958129110245	-0.49379102106254347	0.0	0.9483543493344649	-0.4415113780395871	0.0	0.8900389628224522	-0.4398905613549919	0.0	0.8648715406432461	-0.4661575442947078	0.0	0.9526371781671508	-0.4427600462709222	0.0	0.8993042455371144	-0.4409151618321085	0.0	0.8728336037396334	-0.4637553978269167	0.0
48	1.610126582278481	0.8673609929382259	-0.3591155383006715	0.0	0.8596352376769407	-0.36006999407275136	0.0	0.8135513145950758	-0.4549818067394658	0.0	0.7376892417607461	-0.4577262087827213	0.0	0.7267878610983816	-0.49667296047096066	0.0	0.7212923321271066	-0.4897282692090901	0.0	0.7251269704890928	-0.44990283664759334	0.0	0.8704375571990084	-0.36155314601113897	0.0	0.8142533399137691	-0.45279350284945186	0.0	0.7764770495577943	-0.4578409043825897	0.0	0.7654794673419911	-0.4854289388976163	0.0	0.7669239641817142	-0.48238258163184283	0.0	0.7634850008080185	-0.450451627118512	0.0	0.96614485663914	-0.44805876341299405	0.0	1.0056091434591123	-0.49606744575521927	0.0	0.9791327870310589	-0.48705276321752317	0.0	0.9579872547558053	-0.43668438662954473	0.0	0.8988862664626155	-0.45611600907154426	0.0	0.8847052850694676	-0.4955708402614236	0.0	0.9634200999156148	-0.4355021247790681	0.0	0.9130953954174509	-0.44889370320519695	0.0	0.8961856224237957	-0.47828829825021746	0.0
